<svg xmlns="http://www.w3.org/2000/svg" version="1.0" preserveAspectRatio="xMidYMid meet" viewBox="190.5 227.09 633.5 552.91">

<g transform="translate(0.000000,1024.000000) scale(0.100000,-0.100000)" stroke="none">
<path fill="#d09332" d="M4935 7866 c-223 -228 -1117 -1106 -1126 -1106 -5 0 -9 101 -9 250 0 237 -1 251 -20 270 -19 19 -33 20 -438 20 -393 0 -420 -1 -435 -18 -16 -17 -17 -80 -17 -704 l0 -686 -492 -497 c-271 -274 -493 -504 -493 -511 0 -19 526 -544 544 -544 8 0 123 107 255 238 559 552 910 897 1386 1363 278 271 609 597 736 724 l232 230 463 -454 c255 -249 673 -657 929 -905 256 -248 635 -617 843 -821 209 -203 386 -372 394 -374 17 -3 553 525 553 545 0 6 -30 39 -67 74 -38 35 -147 141 -243 235 -307 300 -916 891 -1235 1200 -171 165 -578 561 -905 880 -722 704 -712 695 -736 694 -10 0 -64 -47 -119 -103z"/>
<path fill="#ffffff" d="M5357 5035 l-602 -604 -205 199 c-113 110 -210 200 -216 200 -6 0 -127 -114 -269 -253 l-258 -252 64 -65 c300 -305 841 -830 854 -830 18 0 120 99 1118 1084 345 341 627 625 627 632 0 13 -489 494 -502 494 -5 0 -279 -272 -611 -605z"/>
<path fill="#ffffff" d="M3080 4585 l-345 -345 -3 -880 c-2 -870 -2 -880 18 -900 20 -20 27 -20 2334 -20 2140 0 2315 1 2327 17 12 13 14 165 14 896 l0 880 -355 349 c-260 255 -360 348 -375 346 -20 -3 -20 -12 -23 -875 l-2 -873 -1600 0 -1600 0 -2 873 c-3 863 -3 872 -23 875 -15 2 -112 -90 -365 -343z"/>
</g>
</svg>